<!-- Generator: Adobe Illustrator 17.0.0, SVG Export Plug-In  -->
<svg version="1.1"
	 xmlns="http://www.w3.org/2000/svg" xmlns:xlink="http://www.w3.org/1999/xlink" xmlns:a="http://ns.adobe.com/AdobeSVGViewerExtensions/3.0/"
	 x="0px" y="0px" width="598.362px" height="124.706px" viewBox="0 0 598.362 124.706" enable-background="new 0 0 598.362 124.706"
	 xml:space="preserve">
<defs>
</defs>
<g>
	<g>
		<path fill="#0F6B99" d="M188.438,19.401c1.38-6.212,2.698-11.965,3.91-17.74c0.255-1.215,0.871-1.591,1.968-1.607
			c10.22-0.151,20.296,0.442,29.689,5.147c13.974,7,20.395,18.816,21.015,33.897c0.578,14.064-2.402,27.418-10.506,39.213
			c-10.511,15.298-25.823,22.445-43.726,23.519c-15.559,0.934-31.209,0.32-46.818,0.441c-1.859,0.014-2.454-0.239-1.98-2.418
			c5.176-23.817,10.255-47.655,15.218-71.517c0.48-2.307,1.36-2.885,3.549-2.832c5.684,0.138,11.378,0.171,17.06-0.009
			c2.629-0.083,3.329,0.595,2.753,3.238c-3.725,17.095-7.255,34.232-11.042,51.312c-0.62,2.794-0.263,3.603,2.693,3.473
			c7.113-0.313,14.296,0.526,21.317-1.226c14.406-3.593,24.729-15.76,26.462-31.091c0.475-4.207,0.937-8.385,0.245-12.645
			c-1.911-11.77-8.964-18.342-20.98-19.121C195.786,19.21,192.28,19.401,188.438,19.401z"/>
		<path fill="#0F6B99" d="M61.773,49.29c3.658-7.999,8.411-15.082,13.718-21.827c0.741-0.941,1.304-1.949,2.807-1.935
			c6.4,0.063,12.801,0.027,19.506,0.027c-1.423,3.823-3.35,6.982-5.544,9.978c-8.284,11.311-16.639,22.571-24.862,33.926
			c-1.214,1.676-2.495,2.298-4.492,2.192c-2.775-0.148-5.607-0.346-8.336,0.036c-3.968,0.555-5.624-0.915-6.614-4.782
			c-2.391-9.336-5.204-18.569-8.023-27.79c-1.898-6.209-2.405-12.542-2.542-18.995c-1.602,8.542-3.062,17.113-4.835,25.619
			c-3.742,17.949-7.697,35.853-11.421,53.805c-0.434,2.094-1.093,2.81-3.229,2.751c-5.198-0.145-10.406-0.146-15.605-0.002
			c-2.291,0.063-2.564-0.717-2.127-2.748C7.108,67.352,14.015,35.153,20.798,2.928c0.479-2.273,1.233-2.966,3.494-2.926
			c7.378,0.131,14.76,0.048,22.14,0.05c1.325,0,2.507-0.142,3.008,1.729c3.803,14.196,9.17,27.96,11.719,42.502
			C61.449,45.937,61.572,47.62,61.773,49.29z"/>
		<path fill="#0F6B99" d="M111.139,102.248c4.274-20.22,8.466-40.027,12.646-59.837c1.42-6.728,2.661-13.498,4.293-20.173
			c0.62-2.537,0.139-3.031-2.363-3.011c-13.306,0.106-26.613,0.05-39.92,0.05c-1.175,0-2.35,0-4.232,0
			c4.766-6.455,9.177-12.425,13.584-18.398c0.785-1.064,1.937-0.821,2.995-0.821c28.065-0.01,56.131,0.004,84.196-0.032
			c1.971-0.002,2.819,0.202,2.181,2.608c-1.266,4.774-2.191,9.644-3.102,14.503c-0.351,1.871-1.317,2.19-3.003,2.173
			c-7.741-0.076-15.485,0.04-23.226-0.079c-2.251-0.035-3.249,0.353-3.781,2.918c-5.342,25.745-10.923,51.441-16.316,77.176
			c-0.458,2.186-1.094,3.038-3.445,2.98C124.9,102.142,118.148,102.248,111.139,102.248z"/>
		<path fill="#0F6B99" d="M93.33,102.249c-2.299,0-4.615-0.177-6.893,0.046c-2.744,0.268-3.567-0.435-2.899-3.321
			c5.305-22.916,9.479-46.08,15.111-68.929c0.879-3.566,2.18-4.98,5.981-4.588c4.071,0.42,8.224,0.226,12.33,0.046
			c2.47-0.109,3.136,0.585,2.598,3.049c-3.218,14.733-6.324,29.49-9.471,44.239c-1.888,8.849-3.829,17.687-5.64,26.551
			c-0.423,2.069-1.093,3.196-3.5,2.963C98.43,102.059,95.871,102.249,93.33,102.249z"/>
		<path fill="#0F6B99" d="M342.925,54.127c-3.462,5.739-6.61,10.987-9.787,16.218c-6.013,9.902-12.166,19.722-17.99,29.734
			c-1.78,3.061-4.284,2.13-6.612,2.098c-2.519-0.035-1.838-2.405-2.079-3.862c-2.179-13.216-4.294-26.443-6.352-39.678
			c-0.223-1.434-1.221-3.803,0.014-4.223c2.044-0.696,4.536-0.352,6.784-0.044c0.977,0.134,0.744,1.619,0.871,2.546
			c1.597,11.669,3.188,23.339,4.789,35.073c6.278-11.082,12.702-22.073,18.732-33.276c1.9-3.53,4.03-5.371,8.074-4.613
			C340.303,54.276,341.296,54.127,342.925,54.127z"/>
		<path fill="#0F6B99" d="M410.743,30.92c-3.975,18.665-7.868,36.95-11.762,55.235c-0.327,1.535-0.722,3.058-0.967,4.606
			c-0.638,4.028,0.741,5.5,4.862,5.634c0.97,0.032,2.859-1.155,2.868,0.717c0.008,1.832,0.332,4.312-2.03,5.312
			c-7.458,3.157-14.723-1.707-13.68-9.715c1.118-8.589,3.253-17.05,5.038-25.547c2.257-10.743,4.772-21.434,6.82-32.215
			c0.627-3.298,1.789-4.652,5.107-4.056C408.048,31.079,409.158,30.92,410.743,30.92z"/>
		<path fill="#0F6B99" d="M579.648,62.196c2.169-0.373,2.475-2.19,3.439-3.309c3.487-4.047,7.349-6.893,13.178-5.725
			c2.013,0.403,2.318,1.275,1.977,2.93c-0.146,0.709-0.408,1.423-0.4,2.132c0.04,3.307-0.93,4.322-4.38,2.865
			c-3.368-1.422-6.368,0.396-8.827,2.741c-5.005,4.774-7.341,10.956-8.838,17.506c-1.397,6.112-2.612,12.265-4.014,18.376
			c-0.206,0.898,0.136,2.467-1.503,2.475c-2.152,0.011-4.402,0.569-6.422-0.327c-0.786-0.348,0.03-1.518,0.19-2.298
			c2.595-12.639,5.212-25.274,7.797-37.915c0.338-1.654,0.663-3.33,0.756-5.01c0.106-1.911,0.767-2.588,2.824-2.575
			C581.161,54.1,581.162,53.98,579.648,62.196z"/>
		<path fill="#0F6B99" d="M510.138,66.051c-0.973-7.817-4.867-11.97-11.573-12.924c-8.201-1.166-13.805,2.987-18.007,9.569
			c-0.133,0.588-0.651,1.412-1.002,1.09c-0.774-0.71-0.393-1.665,0.267-2.422c0,0.001,0.001,0.002,0.002,0.003
			c0-0.001,0-0.002,0-0.003c0.172-1.318,0.506-2.64,0.467-3.952c-0.034-1.153,1.403-3.561-1.157-3.122
			c-2.249,0.385-6.31-2.826-6.686,2.371c-0.892,12.342-4.25,24.217-6.646,36.272c-2.082,10.477-4.386,20.91-6.652,31.648
			c1.563,0,2.78-0.142,3.951,0.028c3.085,0.448,4.395-0.621,4.848-3.896c0.741-5.36,2.241-10.61,3.215-15.944
			c0.416-2.281,0.98-2.88,3.51-2.246c9.228,2.312,17.896,0.893,24.963-5.811C508.395,88.404,511.608,77.862,510.138,66.051z
			 M498.553,86.608c-5.007,8.901-13.309,12.143-23.098,9.152c-1.241-0.379-2.398-0.538-1.928-2.289
			c1.871-6.961,2.37-14.283,5.585-20.893c1.379-2.835,2.895-5.565,5.028-7.907c4.062-4.458,9.129-6.156,13.216-4.447
			c3.472,1.451,5.167,5.253,5.12,13.104C502.365,77.004,501.145,82,498.553,86.608z"/>
		<path fill="#0F6B99" d="M439.388,52.864c-7.255,0.317-13.362,3.24-17.955,8.884c-6.204,7.623-8.342,16.57-7.316,26.161
			c0.949,8.865,6.775,14.607,15.168,15.455c7.637,0.771,14.358-1.458,19.816-6.952c6.507-6.55,8.87-14.738,9.063-21.082
			C458.251,60.144,450.925,52.36,439.388,52.864z M445.446,89.207c-1.402,2.159-3.177,3.953-5.341,5.337
			c-8.349,5.34-17.097,1.451-18.051-8.351c-0.748-7.686,1.225-14.862,6.242-20.951c2.198-2.668,4.952-4.625,8.412-5.294
			c8.414-1.625,13.539,3.267,13.49,14.498C450.072,78.66,448.696,84.204,445.446,89.207z"/>
		<path fill="#0F6B99" d="M383.181,62.768c-1.103-5.428-5.059-8.254-10.34-9.374c-7.104-1.507-13.532,0.21-19.048,4.656
			c-9.338,7.526-12.839,17.685-11.52,29.34c1.064,9.392,6.403,14.646,15.173,15.896c3.238,0.462,6.493,0.273,9.73-0.444
			c7.812-1.729,8.218-2.117,9.394-10.638c-4.279,2.435-8.415,4.028-12.925,4.541c-7.81,0.888-13.509-4.078-13.71-11.834
			c-0.048-1.829,0.361-2.514,2.344-2.532c3.496-0.031,7.005-0.293,10.479-0.707c5.302-0.633,10.483-1.806,14.972-4.924
			C382.654,73.328,384.327,68.404,383.181,62.768z M369.05,73.568c-5.753,2.028-11.756,2.45-17.848,2.344
			c1.149-8.03,7.574-15.154,14.327-16.059c5.075-0.68,8.868,0.922,9.78,4.131C376.442,67.971,374.084,71.793,369.05,73.568z"/>
		<path fill="#0F6B99" d="M558.865,62.351c-1.176-5.068-4.99-7.82-9.962-8.908c-7.489-1.639-14.141,0.313-19.969,5.089
			c-6.823,5.592-10.151,13.096-11.059,21.691c-1.351,12.791,4.209,21.233,15.049,23.017c3.482,0.573,6.983,0.321,10.444-0.469
			c7.482-1.708,8.002-2.284,8.912-10.458c-4.029,2.136-8.091,3.84-12.56,4.404c-7.724,0.976-13.302-3.463-13.974-11.135
			c-0.185-2.107,0.025-3.304,2.73-3.232c3.485,0.093,7.013-0.234,10.474-0.72c5.517-0.775,10.958-1.953,15.461-5.586
			C558.857,72.458,560.086,67.614,558.865,62.351z M547.382,72.318c-4.099,2.543-13.591,4.105-20.382,3.354
			c1.341-9.148,9.141-16.382,17.223-15.965c3.082,0.159,5.793,1.047,6.826,4.318C552.042,67.17,550.538,70.361,547.382,72.318z"/>
		<path fill="#0F6B99" d="M291.013,62.852c-0.979-4.818-5.049-8.374-10.711-9.503c-7.13-1.422-13.514,0.38-18.996,4.872
			c-9.291,7.612-12.662,17.808-11.274,29.45c1.119,9.387,6.897,14.787,15.781,15.708c3.511,0.364,7.009,0.106,10.429-0.834
			c6.904-1.897,7.21-2.29,7.888-10.192c-4.07,2.183-8.154,3.858-12.631,4.383c-7.991,0.939-13.873-4.23-13.829-12.069
			c0.009-1.729,0.44-2.254,2.212-2.284c3.499-0.058,7.006-0.309,10.484-0.702c5.19-0.586,10.254-1.747,14.703-4.661
			C289.9,73.856,292.137,68.382,291.013,62.852z M278.779,72.628c-6.249,3.111-13.03,3.19-19.834,3.303
			c1.223-9.118,8.82-16.422,16.771-16.241c3.342,0.076,6.339,0.917,7.366,4.596C283.983,67.514,282.283,70.884,278.779,72.628z"/>
	</g>
</g>
</svg>